<svg width="282" height="80" viewBox="0 0 282 80" fill="none" xmlns="http://www.w3.org/2000/svg">
<path d="M105.56 57.1504L104.086 51.2841H96.8964L95.302 57L91.4513 56.6992L94.0986 49.3889L98.1298 36.4529L103.515 36.0618L107.396 48.9376L109.892 56.4886L105.56 57.1504ZM100.807 39.9727H100.416L97.829 48.0953H103.184L100.807 39.9727ZM112.738 57L113.099 49.6897L112.738 36.844L117.01 36.0919L116.588 49.1783L116.799 54.0518L122.966 53.5705L122.635 57H112.738ZM125.547 57L125.908 49.6897L125.547 36.844L129.819 36.0919L129.397 49.1783L129.608 54.0518L135.775 53.5705L135.444 57H125.547ZM151.911 36.0919L151.49 49.1783L151.851 57H147.639L148 49.6897L147.639 36.844L151.911 36.0919ZM172.632 36.1822L172.24 49.1783L172.571 56.3382L169.022 57.0903L160.057 42.59V49.1783L160.478 57H156.717L157.078 49.6897L156.717 36.3326L160.327 36.1521L169.262 50.8629L168.961 36.6334L172.632 36.1822ZM183.866 57.3309C181.64 57.3309 179.765 56.3983 178.241 54.5331C176.717 52.668 175.954 50.3816 175.954 47.6741C175.954 44.3649 176.867 41.5771 178.692 39.3109C180.537 37.0446 182.793 35.9114 185.461 35.9114C186.504 35.9114 187.466 36.0217 188.349 36.2423C189.251 36.4429 189.893 36.6535 190.274 36.8741L190.816 37.205L188.77 41.3866C188.309 40.9855 187.657 40.6145 186.815 40.2735C185.972 39.9125 185.21 39.732 184.528 39.732C183.144 39.732 182.031 40.3036 181.189 41.4468C180.367 42.59 179.956 44.2245 179.956 46.3504C179.956 48.4563 180.387 50.1911 181.249 51.5549C182.112 52.8986 183.285 53.5705 184.769 53.5705C185.732 53.5705 186.604 53.2696 187.386 52.668C188.168 52.0663 188.72 51.2641 189.041 50.2613L191.538 51.7053C190.876 53.4702 189.863 54.854 188.499 55.8568C187.135 56.8396 185.591 57.3309 183.866 57.3309ZM194.028 57L194.389 49.6897L194.028 36.844L198.3 36.0919L197.879 49.1783L198.089 54.0518L204.256 53.5705L203.926 57H194.028ZM213.185 57.3309C211.38 57.3309 209.855 56.7794 208.612 55.6763C207.389 54.5733 206.777 53.2095 206.777 51.585L206.476 36.844L210.808 36.0919L210.327 49.2685C210.327 50.6724 210.648 51.7655 211.289 52.5476C211.951 53.3298 212.964 53.7209 214.328 53.7209C215.692 53.7209 216.674 53.3398 217.276 52.5777C217.878 51.8156 218.179 50.5019 218.179 48.6368L217.818 36.844L222.029 36.0919L221.698 49.3287C221.698 51.6953 220.906 53.6206 219.322 55.1047C217.737 56.5889 215.692 57.3309 213.185 57.3309ZM226.763 51.0134C228.468 52.7181 230.173 53.5705 231.878 53.5705C232.76 53.5705 233.462 53.3699 233.984 52.9688C234.525 52.5476 234.796 52.0162 234.796 51.3744C234.796 50.7125 234.475 50.161 233.833 49.7198C233.191 49.2585 232.409 48.8574 231.487 48.5164C230.584 48.1755 229.682 47.7944 228.779 47.3733C227.877 46.932 227.104 46.3103 226.463 45.5081C225.821 44.7058 225.5 43.7331 225.5 42.59C225.5 40.7849 226.252 39.2306 227.756 37.927C229.26 36.6033 231.045 35.9415 233.111 35.9415C234.054 35.9415 234.966 36.0418 235.849 36.2423C236.731 36.4429 237.584 36.7337 238.406 37.1147L236.36 41.507C235.799 41.0657 235.026 40.6646 234.044 40.3036C233.081 39.9226 232.229 39.732 231.487 39.732C230.765 39.732 230.173 39.9125 229.712 40.2735C229.27 40.6145 229.05 41.0758 229.05 41.6574C229.05 42.239 229.371 42.7604 230.012 43.2217C230.654 43.6629 231.426 44.054 232.329 44.395C233.251 44.7359 234.164 45.117 235.067 45.5382C235.989 45.9393 236.771 46.5409 237.413 47.3432C238.055 48.1454 238.376 49.1181 238.376 50.2613C238.376 52.1465 237.624 53.8011 236.119 55.2251C234.615 56.629 232.86 57.3309 230.855 57.3309C229.351 57.3309 228.017 56.9699 226.854 56.2479C225.831 55.6262 225.109 55.0747 224.688 54.5933L224.417 54.2624L226.763 51.0134ZM245.834 36.0919L245.413 49.1783L245.774 57H241.562L241.923 49.6897L241.562 36.844L245.834 36.0919ZM257.138 53.2396H257.499L259.004 48.0652L262.162 36.0618L265.803 36.6033L262.223 48.5465L259.876 56.7593L254.311 57.1504L252.175 49.1181L248.685 36.8139L252.957 36.0618L255.694 47.6741L257.138 53.2396ZM268.649 57L269.01 49.6897L268.649 36.2423H279.931L279.6 39.4613H272.831L272.651 44.7861H278.667L278.336 47.9749H272.53L272.5 49.1783L272.711 53.8111H279.991L279.66 57H268.649Z" fill="#056E5C"/>
<path d="M92.5447 75.6671V66.8038H95.7229C96.4657 66.8038 97.103 66.9219 97.6348 67.1583C98.1666 67.3947 98.576 67.7365 98.863 68.1839C99.15 68.6229 99.2935 69.1589 99.2935 69.792C99.2935 70.4082 99.15 70.94 98.863 71.3874C98.576 71.8348 98.1666 72.1766 97.6348 72.413C97.103 72.6493 96.4657 72.7675 95.7229 72.7675H92.8993L93.1905 72.4636V75.6671H92.5447ZM93.1905 72.5016L92.8993 72.1851H95.7229C96.6767 72.1851 97.3985 71.9783 97.8881 71.5646C98.3861 71.1426 98.6351 70.5517 98.6351 69.792C98.6351 69.0238 98.3861 68.4329 97.8881 68.0193C97.3985 67.5972 96.6767 67.3862 95.7229 67.3862H92.8993L93.1905 67.0697V72.5016ZM108.626 75.6671V66.8038H111.804C112.547 66.8038 113.185 66.9219 113.716 67.1583C114.248 67.3947 114.658 67.7365 114.945 68.1839C115.232 68.6229 115.375 69.1589 115.375 69.792C115.375 70.4082 115.232 70.94 114.945 71.3874C114.658 71.8263 114.248 72.1682 113.716 72.413C113.185 72.6493 112.547 72.7675 111.804 72.7675H108.981L109.272 72.4636V75.6671H108.626ZM114.78 75.6671L112.476 72.451H113.21L115.514 75.6671H114.78ZM109.272 72.5016L108.981 72.1977H111.804C112.758 72.1977 113.48 71.9867 113.97 71.5646C114.468 71.1426 114.717 70.5517 114.717 69.792C114.717 69.0238 114.468 68.4329 113.97 68.0193C113.48 67.5972 112.758 67.3862 111.804 67.3862H108.981L109.272 67.0697V72.5016ZM128.654 75.7304C127.996 75.7304 127.384 75.6207 126.818 75.4012C126.261 75.1733 125.771 74.8567 125.349 74.4515C124.936 74.0379 124.615 73.561 124.387 73.0208C124.159 72.4721 124.045 71.877 124.045 71.2354C124.045 70.5939 124.159 70.003 124.387 69.4628C124.615 68.9141 124.936 68.4372 125.349 68.032C125.771 67.6184 126.261 67.3018 126.818 67.0823C127.384 66.8544 127.996 66.7405 128.654 66.7405C129.312 66.7405 129.92 66.8544 130.477 67.0823C131.043 67.3018 131.532 67.6141 131.946 68.0193C132.36 68.4245 132.68 68.9014 132.908 69.4501C133.145 69.9903 133.263 70.5855 133.263 71.2354C133.263 71.8854 133.145 72.4847 132.908 73.0334C132.68 73.5737 132.36 74.0464 131.946 74.4515C131.532 74.8567 131.043 75.1733 130.477 75.4012C129.92 75.6207 129.312 75.7304 128.654 75.7304ZM128.654 75.1353C129.22 75.1353 129.743 75.0382 130.224 74.8441C130.705 74.6499 131.123 74.3756 131.478 74.021C131.832 73.6665 132.106 73.2529 132.301 72.7802C132.503 72.3075 132.604 71.7926 132.604 71.2354C132.604 70.6699 132.503 70.1549 132.301 69.6907C132.106 69.218 131.832 68.8043 131.478 68.4498C131.123 68.0953 130.705 67.8209 130.224 67.6268C129.743 67.4326 129.22 67.3356 128.654 67.3356C128.088 67.3356 127.565 67.4326 127.084 67.6268C126.603 67.8209 126.181 68.0953 125.818 68.4498C125.463 68.8043 125.185 69.218 124.982 69.6907C124.788 70.1549 124.691 70.6699 124.691 71.2354C124.691 71.7926 124.788 72.3075 124.982 72.7802C125.185 73.2529 125.463 73.6665 125.818 74.021C126.181 74.3756 126.603 74.6499 127.084 74.8441C127.565 75.0382 128.088 75.1353 128.654 75.1353ZM142.657 75.6671V66.8038H145.835C146.578 66.8038 147.215 66.9219 147.747 67.1583C148.278 67.3947 148.688 67.7365 148.975 68.1839C149.262 68.6229 149.405 69.1589 149.405 69.792C149.405 70.4082 149.262 70.94 148.975 71.3874C148.688 71.8348 148.278 72.1766 147.747 72.413C147.215 72.6493 146.578 72.7675 145.835 72.7675H143.011L143.302 72.4636V75.6671H142.657ZM143.302 72.5016L143.011 72.1851H145.835C146.789 72.1851 147.51 71.9783 148 71.5646C148.498 71.1426 148.747 70.5517 148.747 69.792C148.747 69.0238 148.498 68.4329 148 68.0193C147.51 67.5972 146.789 67.3862 145.835 67.3862H143.011L143.302 67.0697V72.5016ZM159.308 70.8809H164.107V71.4507H159.308V70.8809ZM159.384 75.0846H164.854V75.6671H158.738V66.8038H164.664V67.3862H159.384V75.0846ZM174.362 75.6671V66.8038H177.54C178.283 66.8038 178.92 66.9219 179.452 67.1583C179.984 67.3947 180.393 67.7365 180.68 68.1839C180.967 68.6229 181.111 69.1589 181.111 69.792C181.111 70.4082 180.967 70.94 180.68 71.3874C180.393 71.8263 179.984 72.1682 179.452 72.413C178.92 72.6493 178.283 72.7675 177.54 72.7675H174.717L175.008 72.4636V75.6671H174.362ZM180.516 75.6671L178.211 72.451H178.946L181.25 75.6671H180.516ZM175.008 72.5016L174.717 72.1977H177.54C178.494 72.1977 179.216 71.9867 179.706 71.5646C180.204 71.1426 180.453 70.5517 180.453 69.792C180.453 69.0238 180.204 68.4329 179.706 68.0193C179.216 67.5972 178.494 67.3862 177.54 67.3862H174.717L175.008 67.0697V72.5016ZM192.202 75.6671V67.3862H189.012V66.8038H196.039V67.3862H192.848V75.6671H192.202ZM204.794 75.6671V66.8038H205.44V75.6671H204.794ZM216.252 70.8809H221.051V71.4507H216.252V70.8809ZM216.328 75.0846H221.798V75.6671H215.682V66.8038H221.608V67.3862H216.328V75.0846ZM233.636 75.7304C232.978 75.7304 232.353 75.6207 231.762 75.4012C231.18 75.1733 230.728 74.882 230.408 74.5275L230.699 74.0464C231.003 74.3587 231.416 74.6246 231.94 74.8441C232.471 75.0551 233.033 75.1606 233.624 75.1606C234.215 75.1606 234.696 75.0846 235.067 74.9327C235.447 74.7723 235.726 74.5613 235.903 74.2996C236.088 74.0379 236.181 73.7467 236.181 73.4259C236.181 73.0461 236.08 72.7422 235.877 72.5143C235.675 72.2864 235.409 72.1049 235.08 71.9698C234.751 71.8348 234.392 71.7208 234.004 71.6279C233.615 71.5351 233.223 71.438 232.826 71.3367C232.429 71.227 232.066 71.0877 231.737 70.9189C231.408 70.7501 231.142 70.5221 230.939 70.2351C230.745 69.9397 230.648 69.5598 230.648 69.0956C230.648 68.6735 230.758 68.2852 230.977 67.9307C231.197 67.5761 231.539 67.2891 232.003 67.0697C232.467 66.8502 233.062 66.7405 233.788 66.7405C234.278 66.7405 234.759 66.8122 235.232 66.9557C235.713 67.0992 236.122 67.2934 236.46 67.5382L236.219 68.0573C235.848 67.8041 235.447 67.6184 235.016 67.5002C234.594 67.3736 234.185 67.3102 233.788 67.3102C233.223 67.3102 232.754 67.3904 232.383 67.5508C232.011 67.7112 231.737 67.9265 231.56 68.1966C231.382 68.4583 231.294 68.7537 231.294 69.0829C231.294 69.4628 231.391 69.7667 231.585 69.9946C231.788 70.2225 232.054 70.404 232.383 70.539C232.712 70.6741 233.075 70.788 233.472 70.8809C233.868 70.9737 234.261 71.075 234.649 71.1848C235.038 71.2861 235.396 71.4211 235.726 71.59C236.055 71.7588 236.321 71.9867 236.523 72.2737C236.726 72.5607 236.827 72.9321 236.827 73.3879C236.827 73.8016 236.713 74.1899 236.485 74.5528C236.257 74.9074 235.907 75.1944 235.434 75.4138C234.97 75.6249 234.371 75.7304 233.636 75.7304Z" fill="#056E5C"/>
<rect width="80" height="80" rx="5" fill="#056E5C"/>
<path d="M15 60.5H35.3456H65" stroke="#FFF5E0" stroke-width="2"/>
<path d="M59 57V34.5L41 23.5L21 34.5V57" stroke="#FFF5E0" stroke-width="1.5"/>
<path d="M63.5 57V31.3477L41 18.5L16.5 32V57" stroke="#FFF5E0" stroke-width="3"/>
<path d="M55 57V36.78L41 28L25 36.5V57" stroke="#FFF5E0" stroke-width="1.5"/>
</svg>
