<svg width="200" height="200" viewBox="0 0 7 100" fill="none" xmlns="http://www.w3.org/2000/svg">
<!-- <rect width="100" height="100" rx="5" fill="#056E5C"/> -->
<path d="M18 72.5L50 72.75L82 72.5" stroke="#056E5C" stroke-width="1"/>
<path d="M77 70V40.6156L50 25L23 40.6148V70" stroke="#056E5C" stroke-width="1"/>
<path d="M81 70V38.5898L50 20.5L19 38.5899V70" stroke="#056E5C" stroke-width="1"/>
<path d="M73 70V43.6281L50 30L27 43.6281V70" stroke="#056E5C" stroke-width="1"/>
<!-- <path d="M39.9512 48.0972L34.5381 63H32.3257L38.5586 46.6484H39.9849L39.9512 48.0972ZM44.4883 63L39.064 48.0972L39.0303 46.6484H40.4565L46.7119 63H44.4883ZM44.2075 56.9468V58.7212H35.021V56.9468H44.2075ZM51.2266 46.6484V63H49.0591V46.6484H51.2266ZM61.1992 56.5874H56.8306V54.8242H61.1992C62.0452 54.8242 62.7303 54.6895 63.2544 54.4199C63.7785 54.1504 64.1603 53.776 64.3999 53.2969C64.647 52.8177 64.7705 52.2712 64.7705 51.6572C64.7705 51.0957 64.647 50.5679 64.3999 50.0737C64.1603 49.5796 63.7785 49.1828 63.2544 48.8833C62.7303 48.5763 62.0452 48.4229 61.1992 48.4229H57.3359V63H55.1685V46.6484H61.1992C62.4346 46.6484 63.479 46.8618 64.3325 47.2886C65.186 47.7153 65.8337 48.3068 66.2754 49.063C66.7171 49.8117 66.938 50.6689 66.938 51.6348C66.938 52.6829 66.7171 53.5776 66.2754 54.3188C65.8337 55.0601 65.186 55.6253 64.3325 56.0146C63.479 56.3965 62.4346 56.5874 61.1992 56.5874Z" fill="#FFF5E0"/> -->
</svg>
